<svg xmlns="http://www.w3.org/2000/svg" width="73.328" height="62.48" viewBox="0 0 73.328 62.48">
  <path id="Icon_material-shopping-cart" data-name="Icon material-shopping-cart" d="M24.082,54.151c-4.033,0-7.3,2.812-7.3,6.248s3.263,6.248,7.3,6.248,7.333-2.812,7.333-6.248S28.115,54.151,24.082,54.151Zm-22-49.984v6.248H9.416l13.2,23.711-4.95,7.654a5.362,5.362,0,0,0-.917,3c0,3.436,3.3,6.248,7.333,6.248h44V44.779H25.622A.849.849,0,0,1,24.705,44l.11-.375,3.3-5.092H55.43a7.576,7.576,0,0,0,6.416-3.218L74.972,15.038a2.7,2.7,0,0,0,.44-1.5,3.438,3.438,0,0,0-3.666-3.124H17.519L14.073,4.167H2.083ZM60.746,54.151c-4.033,0-7.3,2.812-7.3,6.248s3.263,6.248,7.3,6.248,7.333-2.812,7.333-6.248S64.779,54.151,60.746,54.151Z" transform="translate(-2.083 -4.167)" fill="rgba(9,146,251,0.48)"/>
</svg>
